<svg version="1.1" xmlns="http://www.w3.org/2000/svg" xmlns:xlink="http://www.w3.org/1999/xlink" width="496.58251953125" height="276"><defs/><g><g transform="translate(-126,-262) scale(1,1)"><rect fill="#ffffff" stroke="none" x="224" y="272" width="155.58642578125" height="32"/></g><g transform="translate(-126,-262) scale(1,1)"><path fill="none" stroke="#000000" d="M 224 272 L 379.58642578125 272 L 379.58642578125 304 L 224 304 L 224 272 Z Z" stroke-miterlimit="10"/></g><g transform="translate(-126,-262) scale(1,1)"><g><path fill="none" stroke="none"/><text fill="#000000" stroke="none" font-family="Arial" font-size="13px" font-style="normal" font-weight="bold" text-decoration="none" x="228.5" y="289.5">LogModifierComponent</text></g></g><g transform="translate(-126,-262) scale(1,1)"><rect fill="#ffffff" stroke="none" x="368" y="384" width="155.6689453125" height="32"/></g><g transform="translate(-126,-262) scale(1,1)"><path fill="none" stroke="#000000" d="M 368 384 L 523.6689453125 384 L 523.6689453125 416 L 368 416 L 368 384 Z Z" stroke-miterlimit="10"/></g><g transform="translate(-126,-262) scale(1,1)"><g><path fill="none" stroke="none"/><text fill="#000000" stroke="none" font-family="Arial" font-size="13px" font-style="normal" font-weight="bold" text-decoration="none" x="372.5" y="401.5">ActiveAttributesService</text></g></g><g transform="translate(-126,-262) scale(1,1)"><rect fill="#ffffff" stroke="none" x="136" y="384" width="153.5107421875" height="32"/></g><g transform="translate(-126,-262) scale(1,1)"><path fill="none" stroke="#000000" d="M 136 384 L 289.5107421875 384 L 289.5107421875 416 L 136 416 L 136 384 Z Z" stroke-miterlimit="10"/></g><g transform="translate(-126,-262) scale(1,1)"><g><path fill="none" stroke="none"/><text fill="#000000" stroke="none" font-family="Arial" font-size="13px" font-style="normal" font-weight="bold" text-decoration="none" x="140.5" y="401.5">QualitySaveLogService</text></g></g><g transform="translate(-126,-262) scale(1,1)"><path fill="none" stroke="#000000" d="M 287 305 L 226 383" stroke-miterlimit="10"/></g><g transform="translate(-126,-262) scale(1,1)"><path fill="none" stroke="#000000" d="M 228.9446595893098 372.40146331312263 L 226 383 L 235.57648592583234 377.5878916019415" stroke-miterlimit="10"/></g><g transform="translate(-126,-262) scale(1,1)"><path fill="none" stroke="#000000" d="M 323 305 L 423 383" stroke-miterlimit="10"/></g><g transform="translate(-126,-262) scale(1,1)"><path fill="none" stroke="#000000" d="M 412.397720162338 380.0688462606158 L 423 383 L 417.57569471657064 373.43041734493295" stroke-miterlimit="10"/></g><g transform="translate(-126,-262) scale(1,1)"><rect fill="#ffffff" stroke="none" x="280" y="496" width="153.4853515625" height="32"/></g><g transform="translate(-126,-262) scale(1,1)"><path fill="none" stroke="#000000" d="M 280 496 L 433.4853515625 496 L 433.4853515625 528 L 280 528 L 280 496 Z Z" stroke-miterlimit="10"/></g><g transform="translate(-126,-262) scale(1,1)"><g><path fill="none" stroke="none"/><text fill="#000000" stroke="none" font-family="Arial" font-size="13px" font-style="normal" font-weight="bold" text-decoration="none" x="284.5" y="513.5">QualityAttributeService</text></g></g><g transform="translate(-126,-262) scale(1,1)"><rect fill="#ffffff" stroke="none" x="480" y="496" width="132.58251953125" height="32"/></g><g transform="translate(-126,-262) scale(1,1)"><path fill="none" stroke="#000000" d="M 480 496 L 612.58251953125 496 L 612.58251953125 528 L 480 528 L 480 496 Z Z" stroke-miterlimit="10"/></g><g transform="translate(-126,-262) scale(1,1)"><g><path fill="none" stroke="none"/><text fill="#000000" stroke="none" font-family="Arial" font-size="13px" font-style="normal" font-weight="bold" text-decoration="none" x="484.5" y="513.5">ActivePhaseService</text></g></g><g transform="translate(-126,-262) scale(1,1)"><path fill="none" stroke="#000000" d="M 431 417 L 370 495" stroke-miterlimit="10"/></g><g transform="translate(-126,-262) scale(1,1)"><path fill="none" stroke="#000000" d="M 372.94465958930977 484.40146331312263 L 370 495 L 379.57648592583234 489.5878916019415" stroke-miterlimit="10"/></g><g transform="translate(-126,-262) scale(1,1)"><path fill="none" stroke="#000000" d="M 460 417 L 531 495" stroke-miterlimit="10"/></g><g transform="translate(-126,-262) scale(1,1)"><path fill="none" stroke="#000000" d="M 521.0460663693101 490.31820490881756 L 531 495 L 527.2720350873593 484.6509769731573" stroke-miterlimit="10"/></g></g></svg>