<svg version="1.1" xmlns="http://www.w3.org/2000/svg" xmlns:xlink="http://www.w3.org/1999/xlink" width="352.58251953125" height="188"><defs/><g><g transform="translate(-158,-86) scale(1,1)"><rect fill="#ffffff" stroke="none" x="264" y="96" width="127" height="32"/></g><g transform="translate(-158,-86) scale(1,1)"><path fill="none" stroke="#000000" d="M 264 96 L 391 96 L 391 128 L 264 128 L 264 96 Z Z" stroke-miterlimit="10"/></g><g transform="translate(-158,-86) scale(1,1)"><g><path fill="none" stroke="none"/><text fill="#000000" stroke="none" font-family="Arial" font-size="13px" font-style="normal" font-weight="bold" text-decoration="none" x="268.628662109375" y="113.5">PhasesComponent</text></g></g><g transform="translate(-158,-86) scale(1,1)"><rect fill="#ffffff" stroke="none" x="368" y="232" width="132.58251953125" height="32"/></g><g transform="translate(-158,-86) scale(1,1)"><path fill="none" stroke="#000000" d="M 368 232 L 500.58251953125 232 L 500.58251953125 264 L 368 264 L 368 232 Z Z" stroke-miterlimit="10"/></g><g transform="translate(-158,-86) scale(1,1)"><g><path fill="none" stroke="none"/><text fill="#000000" stroke="none" font-family="Arial" font-size="13px" font-style="normal" font-weight="bold" text-decoration="none" x="372.5" y="249.5">ActivePhaseService</text></g></g><g transform="translate(-158,-86) scale(1,1)"><rect fill="#ffffff" stroke="none" x="168" y="232" width="137.62890625" height="32"/></g><g transform="translate(-158,-86) scale(1,1)"><path fill="none" stroke="#000000" d="M 168 232 L 305.62890625 232 L 305.62890625 264 L 168 264 L 168 232 Z Z" stroke-miterlimit="10"/></g><g transform="translate(-158,-86) scale(1,1)"><g><path fill="none" stroke="none"/><text fill="#000000" stroke="none" font-family="Arial" font-size="13px" font-style="normal" font-weight="bold" text-decoration="none" x="172.5" y="249.5">QualityPhaseService</text></g></g><g transform="translate(-158,-86) scale(1,1)"><path fill="none" stroke="#000000" d="M 316 129 L 247 231" stroke-miterlimit="10"/></g><g transform="translate(-158,-86) scale(1,1)"><path fill="none" stroke="#000000" d="M 249.2075681890832 220.22379275020435 L 247 231 L 256.18091565823454 224.9410572146303" stroke-miterlimit="10"/></g><g transform="translate(-158,-86) scale(1,1)"><path fill="none" stroke="#000000" d="M 340 129 L 421 231" stroke-miterlimit="10"/></g><g transform="translate(-158,-86) scale(1,1)"><path fill="none" stroke="#000000" d="M 411.38349495734195 225.65932300503653 L 421 231 L 417.97653299228756 220.4236751537562" stroke-miterlimit="10"/></g></g></svg>