<svg version="1.1" xmlns="http://www.w3.org/2000/svg" xmlns:xlink="http://www.w3.org/1999/xlink" width="496.58251953125" height="283"><defs/><g><g transform="translate(-87,-326) scale(1,1)"><rect fill="#ffffff" stroke="none" x="200" y="336" width="146.71240234375" height="32"/></g><g transform="translate(-87,-326) scale(1,1)"><path fill="none" stroke="#000000" d="M 200 336 L 346.71240234375 336 L 346.71240234375 368 L 200 368 L 200 336 Z Z" stroke-miterlimit="10"/></g><g transform="translate(-87,-326) scale(1,1)"><g><path fill="none" stroke="none"/><text fill="#000000" stroke="none" font-family="Arial" font-size="13px" font-style="normal" font-weight="bold" text-decoration="none" x="204.5" y="353.5">LogViewerComponent</text></g></g><g transform="translate(-87,-326) scale(1,1)"><rect fill="#ffffff" stroke="none" x="329" y="455" width="155.6689453125" height="32"/></g><g transform="translate(-87,-326) scale(1,1)"><path fill="none" stroke="#000000" d="M 329 455 L 484.6689453125 455 L 484.6689453125 487 L 329 487 L 329 455 Z Z" stroke-miterlimit="10"/></g><g transform="translate(-87,-326) scale(1,1)"><g><path fill="none" stroke="none"/><text fill="#000000" stroke="none" font-family="Arial" font-size="13px" font-style="normal" font-weight="bold" text-decoration="none" x="333.5" y="472.5">ActiveAttributesService</text></g></g><g transform="translate(-87,-326) scale(1,1)"><rect fill="#ffffff" stroke="none" x="97" y="455" width="153.5107421875" height="32"/></g><g transform="translate(-87,-326) scale(1,1)"><path fill="none" stroke="#000000" d="M 97 455 L 250.5107421875 455 L 250.5107421875 487 L 97 487 L 97 455 Z Z" stroke-miterlimit="10"/></g><g transform="translate(-87,-326) scale(1,1)"><g><path fill="none" stroke="none"/><text fill="#000000" stroke="none" font-family="Arial" font-size="13px" font-style="normal" font-weight="bold" text-decoration="none" x="101.5" y="472.5">QualitySaveLogService</text></g></g><g transform="translate(-87,-326) scale(1,1)"><rect fill="#ffffff" stroke="none" x="241" y="567" width="153.4853515625" height="32"/></g><g transform="translate(-87,-326) scale(1,1)"><path fill="none" stroke="#000000" d="M 241 567 L 394.4853515625 567 L 394.4853515625 599 L 241 599 L 241 567 Z Z" stroke-miterlimit="10"/></g><g transform="translate(-87,-326) scale(1,1)"><g><path fill="none" stroke="none"/><text fill="#000000" stroke="none" font-family="Arial" font-size="13px" font-style="normal" font-weight="bold" text-decoration="none" x="245.5" y="584.5">QualityAttributeService</text></g></g><g transform="translate(-87,-326) scale(1,1)"><rect fill="#ffffff" stroke="none" x="441" y="567" width="132.58251953125" height="32"/></g><g transform="translate(-87,-326) scale(1,1)"><path fill="none" stroke="#000000" d="M 441 567 L 573.58251953125 567 L 573.58251953125 599 L 441 599 L 441 567 Z Z" stroke-miterlimit="10"/></g><g transform="translate(-87,-326) scale(1,1)"><g><path fill="none" stroke="none"/><text fill="#000000" stroke="none" font-family="Arial" font-size="13px" font-style="normal" font-weight="bold" text-decoration="none" x="445.5" y="584.5">ActivePhaseService</text></g></g><g transform="translate(-87,-326) scale(1,1)"><path fill="none" stroke="#000000" d="M 392 488 L 331 566" stroke-miterlimit="10"/></g><g transform="translate(-87,-326) scale(1,1)"><path fill="none" stroke="#000000" d="M 333.94465958930977 555.4014633131226 L 331 566 L 340.57648592583234 560.5878916019416" stroke-miterlimit="10"/></g><g transform="translate(-87,-326) scale(1,1)"><path fill="none" stroke="#000000" d="M 421 488 L 492 566" stroke-miterlimit="10"/></g><g transform="translate(-87,-326) scale(1,1)"><path fill="none" stroke="#000000" d="M 482.0460663693101 561.3182049088175 L 492 566 L 488.2720350873593 555.6509769731573" stroke-miterlimit="10"/></g><g transform="translate(-87,-326) scale(1,1)"><path fill="none" stroke="#000000" d="M 259 369 L 187 454" stroke-miterlimit="10"/></g><g transform="translate(-87,-326) scale(1,1)"><path fill="none" stroke="#000000" d="M 190.35653539854013 443.52461599184323 L 187 454 L 196.7806440093012 448.9662138738996" stroke-miterlimit="10"/></g><g transform="translate(-87,-326) scale(1,1)"><path fill="none" stroke="#000000" d="M 292 369 L 387 454" stroke-miterlimit="10"/></g><g transform="translate(-87,-326) scale(1,1)"><path fill="none" stroke="#000000" d="M 376.6194700396173 450.3606871882736 L 387 454 L 382.2332396407341 444.0864741046724" stroke-miterlimit="10"/></g></g></svg>